<svg xmlns="http://www.w3.org/2000/svg" xmlns:xlink="http://www.w3.org/1999/xlink" width="164" height="192" viewBox="0 0 164 192">
  <defs>
    <clipPath id="clip-path">
      <rect width="164" height="192" fill="none"/>
    </clipPath>
  </defs>
  <g id="Repeat_Grid_1" data-name="Repeat Grid 1" clip-path="url(#clip-path)">
    <g transform="translate(-564 -81)">
      <circle id="Ellipse_1" data-name="Ellipse 1" cx="5" cy="5" r="5" transform="translate(564 81)" fill="#e9e9e9"/>
    </g>
    <g transform="translate(-549 -81)">
      <circle id="Ellipse_1-2" data-name="Ellipse 1" cx="5" cy="5" r="5" transform="translate(564 81)" fill="#e9e9e9"/>
    </g>
    <g transform="translate(-534 -81)">
      <circle id="Ellipse_1-3" data-name="Ellipse 1" cx="5" cy="5" r="5" transform="translate(564 81)" fill="#e9e9e9"/>
    </g>
    <g transform="translate(-519 -81)">
      <circle id="Ellipse_1-4" data-name="Ellipse 1" cx="5" cy="5" r="5" transform="translate(564 81)" fill="#e9e9e9"/>
    </g>
    <g transform="translate(-504 -81)">
      <circle id="Ellipse_1-5" data-name="Ellipse 1" cx="5" cy="5" r="5" transform="translate(564 81)" fill="#e9e9e9"/>
    </g>
    <g transform="translate(-489 -81)">
      <circle id="Ellipse_1-6" data-name="Ellipse 1" cx="5" cy="5" r="5" transform="translate(564 81)" fill="#e9e9e9"/>
    </g>
    <g transform="translate(-474 -81)">
      <circle id="Ellipse_1-7" data-name="Ellipse 1" cx="5" cy="5" r="5" transform="translate(564 81)" fill="#e9e9e9"/>
    </g>
    <g transform="translate(-459 -81)">
      <circle id="Ellipse_1-8" data-name="Ellipse 1" cx="5" cy="5" r="5" transform="translate(564 81)" fill="#e9e9e9"/>
    </g>
    <g transform="translate(-444 -81)">
      <circle id="Ellipse_1-9" data-name="Ellipse 1" cx="5" cy="5" r="5" transform="translate(564 81)" fill="#e9e9e9"/>
    </g>
    <g transform="translate(-429 -81)">
      <circle id="Ellipse_1-10" data-name="Ellipse 1" cx="5" cy="5" r="5" transform="translate(564 81)" fill="#e9e9e9"/>
    </g>
    <g transform="translate(-414 -81)">
      <circle id="Ellipse_1-11" data-name="Ellipse 1" cx="5" cy="5" r="5" transform="translate(564 81)" fill="#e9e9e9"/>
    </g>
    <g transform="translate(-564 -66)">
      <circle id="Ellipse_1-12" data-name="Ellipse 1" cx="5" cy="5" r="5" transform="translate(564 81)" fill="#e9e9e9"/>
    </g>
    <g transform="translate(-549 -66)">
      <circle id="Ellipse_1-13" data-name="Ellipse 1" cx="5" cy="5" r="5" transform="translate(564 81)" fill="#e9e9e9"/>
    </g>
    <g transform="translate(-534 -66)">
      <circle id="Ellipse_1-14" data-name="Ellipse 1" cx="5" cy="5" r="5" transform="translate(564 81)" fill="#e9e9e9"/>
    </g>
    <g transform="translate(-519 -66)">
      <circle id="Ellipse_1-15" data-name="Ellipse 1" cx="5" cy="5" r="5" transform="translate(564 81)" fill="#e9e9e9"/>
    </g>
    <g transform="translate(-504 -66)">
      <circle id="Ellipse_1-16" data-name="Ellipse 1" cx="5" cy="5" r="5" transform="translate(564 81)" fill="#e9e9e9"/>
    </g>
    <g transform="translate(-489 -66)">
      <circle id="Ellipse_1-17" data-name="Ellipse 1" cx="5" cy="5" r="5" transform="translate(564 81)" fill="#e9e9e9"/>
    </g>
    <g transform="translate(-474 -66)">
      <circle id="Ellipse_1-18" data-name="Ellipse 1" cx="5" cy="5" r="5" transform="translate(564 81)" fill="#e9e9e9"/>
    </g>
    <g transform="translate(-459 -66)">
      <circle id="Ellipse_1-19" data-name="Ellipse 1" cx="5" cy="5" r="5" transform="translate(564 81)" fill="#e9e9e9"/>
    </g>
    <g transform="translate(-444 -66)">
      <circle id="Ellipse_1-20" data-name="Ellipse 1" cx="5" cy="5" r="5" transform="translate(564 81)" fill="#e9e9e9"/>
    </g>
    <g transform="translate(-429 -66)">
      <circle id="Ellipse_1-21" data-name="Ellipse 1" cx="5" cy="5" r="5" transform="translate(564 81)" fill="#e9e9e9"/>
    </g>
    <g transform="translate(-414 -66)">
      <circle id="Ellipse_1-22" data-name="Ellipse 1" cx="5" cy="5" r="5" transform="translate(564 81)" fill="#e9e9e9"/>
    </g>
    <g transform="translate(-564 -51)">
      <circle id="Ellipse_1-23" data-name="Ellipse 1" cx="5" cy="5" r="5" transform="translate(564 81)" fill="#e9e9e9"/>
    </g>
    <g transform="translate(-549 -51)">
      <circle id="Ellipse_1-24" data-name="Ellipse 1" cx="5" cy="5" r="5" transform="translate(564 81)" fill="#e9e9e9"/>
    </g>
    <g transform="translate(-534 -51)">
      <circle id="Ellipse_1-25" data-name="Ellipse 1" cx="5" cy="5" r="5" transform="translate(564 81)" fill="#e9e9e9"/>
    </g>
    <g transform="translate(-519 -51)">
      <circle id="Ellipse_1-26" data-name="Ellipse 1" cx="5" cy="5" r="5" transform="translate(564 81)" fill="#e9e9e9"/>
    </g>
    <g transform="translate(-504 -51)">
      <circle id="Ellipse_1-27" data-name="Ellipse 1" cx="5" cy="5" r="5" transform="translate(564 81)" fill="#e9e9e9"/>
    </g>
    <g transform="translate(-489 -51)">
      <circle id="Ellipse_1-28" data-name="Ellipse 1" cx="5" cy="5" r="5" transform="translate(564 81)" fill="#e9e9e9"/>
    </g>
    <g transform="translate(-474 -51)">
      <circle id="Ellipse_1-29" data-name="Ellipse 1" cx="5" cy="5" r="5" transform="translate(564 81)" fill="#e9e9e9"/>
    </g>
    <g transform="translate(-459 -51)">
      <circle id="Ellipse_1-30" data-name="Ellipse 1" cx="5" cy="5" r="5" transform="translate(564 81)" fill="#e9e9e9"/>
    </g>
    <g transform="translate(-444 -51)">
      <circle id="Ellipse_1-31" data-name="Ellipse 1" cx="5" cy="5" r="5" transform="translate(564 81)" fill="#e9e9e9"/>
    </g>
    <g transform="translate(-429 -51)">
      <circle id="Ellipse_1-32" data-name="Ellipse 1" cx="5" cy="5" r="5" transform="translate(564 81)" fill="#e9e9e9"/>
    </g>
    <g transform="translate(-414 -51)">
      <circle id="Ellipse_1-33" data-name="Ellipse 1" cx="5" cy="5" r="5" transform="translate(564 81)" fill="#e9e9e9"/>
    </g>
    <g transform="translate(-564 -36)">
      <circle id="Ellipse_1-34" data-name="Ellipse 1" cx="5" cy="5" r="5" transform="translate(564 81)" fill="#e9e9e9"/>
    </g>
    <g transform="translate(-549 -36)">
      <circle id="Ellipse_1-35" data-name="Ellipse 1" cx="5" cy="5" r="5" transform="translate(564 81)" fill="#e9e9e9"/>
    </g>
    <g transform="translate(-534 -36)">
      <circle id="Ellipse_1-36" data-name="Ellipse 1" cx="5" cy="5" r="5" transform="translate(564 81)" fill="#e9e9e9"/>
    </g>
    <g transform="translate(-519 -36)">
      <circle id="Ellipse_1-37" data-name="Ellipse 1" cx="5" cy="5" r="5" transform="translate(564 81)" fill="#e9e9e9"/>
    </g>
    <g transform="translate(-504 -36)">
      <circle id="Ellipse_1-38" data-name="Ellipse 1" cx="5" cy="5" r="5" transform="translate(564 81)" fill="#e9e9e9"/>
    </g>
    <g transform="translate(-489 -36)">
      <circle id="Ellipse_1-39" data-name="Ellipse 1" cx="5" cy="5" r="5" transform="translate(564 81)" fill="#e9e9e9"/>
    </g>
    <g transform="translate(-474 -36)">
      <circle id="Ellipse_1-40" data-name="Ellipse 1" cx="5" cy="5" r="5" transform="translate(564 81)" fill="#e9e9e9"/>
    </g>
    <g transform="translate(-459 -36)">
      <circle id="Ellipse_1-41" data-name="Ellipse 1" cx="5" cy="5" r="5" transform="translate(564 81)" fill="#e9e9e9"/>
    </g>
    <g transform="translate(-444 -36)">
      <circle id="Ellipse_1-42" data-name="Ellipse 1" cx="5" cy="5" r="5" transform="translate(564 81)" fill="#e9e9e9"/>
    </g>
    <g transform="translate(-429 -36)">
      <circle id="Ellipse_1-43" data-name="Ellipse 1" cx="5" cy="5" r="5" transform="translate(564 81)" fill="#e9e9e9"/>
    </g>
    <g transform="translate(-414 -36)">
      <circle id="Ellipse_1-44" data-name="Ellipse 1" cx="5" cy="5" r="5" transform="translate(564 81)" fill="#e9e9e9"/>
    </g>
    <g transform="translate(-564 -21)">
      <circle id="Ellipse_1-45" data-name="Ellipse 1" cx="5" cy="5" r="5" transform="translate(564 81)" fill="#e9e9e9"/>
    </g>
    <g transform="translate(-549 -21)">
      <circle id="Ellipse_1-46" data-name="Ellipse 1" cx="5" cy="5" r="5" transform="translate(564 81)" fill="#e9e9e9"/>
    </g>
    <g transform="translate(-534 -21)">
      <circle id="Ellipse_1-47" data-name="Ellipse 1" cx="5" cy="5" r="5" transform="translate(564 81)" fill="#e9e9e9"/>
    </g>
    <g transform="translate(-519 -21)">
      <circle id="Ellipse_1-48" data-name="Ellipse 1" cx="5" cy="5" r="5" transform="translate(564 81)" fill="#e9e9e9"/>
    </g>
    <g transform="translate(-504 -21)">
      <circle id="Ellipse_1-49" data-name="Ellipse 1" cx="5" cy="5" r="5" transform="translate(564 81)" fill="#e9e9e9"/>
    </g>
    <g transform="translate(-489 -21)">
      <circle id="Ellipse_1-50" data-name="Ellipse 1" cx="5" cy="5" r="5" transform="translate(564 81)" fill="#e9e9e9"/>
    </g>
    <g transform="translate(-474 -21)">
      <circle id="Ellipse_1-51" data-name="Ellipse 1" cx="5" cy="5" r="5" transform="translate(564 81)" fill="#e9e9e9"/>
    </g>
    <g transform="translate(-459 -21)">
      <circle id="Ellipse_1-52" data-name="Ellipse 1" cx="5" cy="5" r="5" transform="translate(564 81)" fill="#e9e9e9"/>
    </g>
    <g transform="translate(-444 -21)">
      <circle id="Ellipse_1-53" data-name="Ellipse 1" cx="5" cy="5" r="5" transform="translate(564 81)" fill="#e9e9e9"/>
    </g>
    <g transform="translate(-429 -21)">
      <circle id="Ellipse_1-54" data-name="Ellipse 1" cx="5" cy="5" r="5" transform="translate(564 81)" fill="#e9e9e9"/>
    </g>
    <g transform="translate(-414 -21)">
      <circle id="Ellipse_1-55" data-name="Ellipse 1" cx="5" cy="5" r="5" transform="translate(564 81)" fill="#e9e9e9"/>
    </g>
    <g transform="translate(-564 -6)">
      <circle id="Ellipse_1-56" data-name="Ellipse 1" cx="5" cy="5" r="5" transform="translate(564 81)" fill="#e9e9e9"/>
    </g>
    <g transform="translate(-549 -6)">
      <circle id="Ellipse_1-57" data-name="Ellipse 1" cx="5" cy="5" r="5" transform="translate(564 81)" fill="#e9e9e9"/>
    </g>
    <g transform="translate(-534 -6)">
      <circle id="Ellipse_1-58" data-name="Ellipse 1" cx="5" cy="5" r="5" transform="translate(564 81)" fill="#e9e9e9"/>
    </g>
    <g transform="translate(-519 -6)">
      <circle id="Ellipse_1-59" data-name="Ellipse 1" cx="5" cy="5" r="5" transform="translate(564 81)" fill="#e9e9e9"/>
    </g>
    <g transform="translate(-504 -6)">
      <circle id="Ellipse_1-60" data-name="Ellipse 1" cx="5" cy="5" r="5" transform="translate(564 81)" fill="#e9e9e9"/>
    </g>
    <g transform="translate(-489 -6)">
      <circle id="Ellipse_1-61" data-name="Ellipse 1" cx="5" cy="5" r="5" transform="translate(564 81)" fill="#e9e9e9"/>
    </g>
    <g transform="translate(-474 -6)">
      <circle id="Ellipse_1-62" data-name="Ellipse 1" cx="5" cy="5" r="5" transform="translate(564 81)" fill="#e9e9e9"/>
    </g>
    <g transform="translate(-459 -6)">
      <circle id="Ellipse_1-63" data-name="Ellipse 1" cx="5" cy="5" r="5" transform="translate(564 81)" fill="#e9e9e9"/>
    </g>
    <g transform="translate(-444 -6)">
      <circle id="Ellipse_1-64" data-name="Ellipse 1" cx="5" cy="5" r="5" transform="translate(564 81)" fill="#e9e9e9"/>
    </g>
    <g transform="translate(-429 -6)">
      <circle id="Ellipse_1-65" data-name="Ellipse 1" cx="5" cy="5" r="5" transform="translate(564 81)" fill="#e9e9e9"/>
    </g>
    <g transform="translate(-414 -6)">
      <circle id="Ellipse_1-66" data-name="Ellipse 1" cx="5" cy="5" r="5" transform="translate(564 81)" fill="#e9e9e9"/>
    </g>
    <g transform="translate(-564 9)">
      <circle id="Ellipse_1-67" data-name="Ellipse 1" cx="5" cy="5" r="5" transform="translate(564 81)" fill="#e9e9e9"/>
    </g>
    <g transform="translate(-549 9)">
      <circle id="Ellipse_1-68" data-name="Ellipse 1" cx="5" cy="5" r="5" transform="translate(564 81)" fill="#e9e9e9"/>
    </g>
    <g transform="translate(-534 9)">
      <circle id="Ellipse_1-69" data-name="Ellipse 1" cx="5" cy="5" r="5" transform="translate(564 81)" fill="#e9e9e9"/>
    </g>
    <g transform="translate(-519 9)">
      <circle id="Ellipse_1-70" data-name="Ellipse 1" cx="5" cy="5" r="5" transform="translate(564 81)" fill="#e9e9e9"/>
    </g>
    <g transform="translate(-504 9)">
      <circle id="Ellipse_1-71" data-name="Ellipse 1" cx="5" cy="5" r="5" transform="translate(564 81)" fill="#e9e9e9"/>
    </g>
    <g transform="translate(-489 9)">
      <circle id="Ellipse_1-72" data-name="Ellipse 1" cx="5" cy="5" r="5" transform="translate(564 81)" fill="#e9e9e9"/>
    </g>
    <g transform="translate(-474 9)">
      <circle id="Ellipse_1-73" data-name="Ellipse 1" cx="5" cy="5" r="5" transform="translate(564 81)" fill="#e9e9e9"/>
    </g>
    <g transform="translate(-459 9)">
      <circle id="Ellipse_1-74" data-name="Ellipse 1" cx="5" cy="5" r="5" transform="translate(564 81)" fill="#e9e9e9"/>
    </g>
    <g transform="translate(-444 9)">
      <circle id="Ellipse_1-75" data-name="Ellipse 1" cx="5" cy="5" r="5" transform="translate(564 81)" fill="#e9e9e9"/>
    </g>
    <g transform="translate(-429 9)">
      <circle id="Ellipse_1-76" data-name="Ellipse 1" cx="5" cy="5" r="5" transform="translate(564 81)" fill="#e9e9e9"/>
    </g>
    <g transform="translate(-414 9)">
      <circle id="Ellipse_1-77" data-name="Ellipse 1" cx="5" cy="5" r="5" transform="translate(564 81)" fill="#e9e9e9"/>
    </g>
    <g transform="translate(-564 24)">
      <circle id="Ellipse_1-78" data-name="Ellipse 1" cx="5" cy="5" r="5" transform="translate(564 81)" fill="#e9e9e9"/>
    </g>
    <g transform="translate(-549 24)">
      <circle id="Ellipse_1-79" data-name="Ellipse 1" cx="5" cy="5" r="5" transform="translate(564 81)" fill="#e9e9e9"/>
    </g>
    <g transform="translate(-534 24)">
      <circle id="Ellipse_1-80" data-name="Ellipse 1" cx="5" cy="5" r="5" transform="translate(564 81)" fill="#e9e9e9"/>
    </g>
    <g transform="translate(-519 24)">
      <circle id="Ellipse_1-81" data-name="Ellipse 1" cx="5" cy="5" r="5" transform="translate(564 81)" fill="#e9e9e9"/>
    </g>
    <g transform="translate(-504 24)">
      <circle id="Ellipse_1-82" data-name="Ellipse 1" cx="5" cy="5" r="5" transform="translate(564 81)" fill="#e9e9e9"/>
    </g>
    <g transform="translate(-489 24)">
      <circle id="Ellipse_1-83" data-name="Ellipse 1" cx="5" cy="5" r="5" transform="translate(564 81)" fill="#e9e9e9"/>
    </g>
    <g transform="translate(-474 24)">
      <circle id="Ellipse_1-84" data-name="Ellipse 1" cx="5" cy="5" r="5" transform="translate(564 81)" fill="#e9e9e9"/>
    </g>
    <g transform="translate(-459 24)">
      <circle id="Ellipse_1-85" data-name="Ellipse 1" cx="5" cy="5" r="5" transform="translate(564 81)" fill="#e9e9e9"/>
    </g>
    <g transform="translate(-444 24)">
      <circle id="Ellipse_1-86" data-name="Ellipse 1" cx="5" cy="5" r="5" transform="translate(564 81)" fill="#e9e9e9"/>
    </g>
    <g transform="translate(-429 24)">
      <circle id="Ellipse_1-87" data-name="Ellipse 1" cx="5" cy="5" r="5" transform="translate(564 81)" fill="#e9e9e9"/>
    </g>
    <g transform="translate(-414 24)">
      <circle id="Ellipse_1-88" data-name="Ellipse 1" cx="5" cy="5" r="5" transform="translate(564 81)" fill="#e9e9e9"/>
    </g>
    <g transform="translate(-564 39)">
      <circle id="Ellipse_1-89" data-name="Ellipse 1" cx="5" cy="5" r="5" transform="translate(564 81)" fill="#e9e9e9"/>
    </g>
    <g transform="translate(-549 39)">
      <circle id="Ellipse_1-90" data-name="Ellipse 1" cx="5" cy="5" r="5" transform="translate(564 81)" fill="#e9e9e9"/>
    </g>
    <g transform="translate(-534 39)">
      <circle id="Ellipse_1-91" data-name="Ellipse 1" cx="5" cy="5" r="5" transform="translate(564 81)" fill="#e9e9e9"/>
    </g>
    <g transform="translate(-519 39)">
      <circle id="Ellipse_1-92" data-name="Ellipse 1" cx="5" cy="5" r="5" transform="translate(564 81)" fill="#e9e9e9"/>
    </g>
    <g transform="translate(-504 39)">
      <circle id="Ellipse_1-93" data-name="Ellipse 1" cx="5" cy="5" r="5" transform="translate(564 81)" fill="#e9e9e9"/>
    </g>
    <g transform="translate(-489 39)">
      <circle id="Ellipse_1-94" data-name="Ellipse 1" cx="5" cy="5" r="5" transform="translate(564 81)" fill="#e9e9e9"/>
    </g>
    <g transform="translate(-474 39)">
      <circle id="Ellipse_1-95" data-name="Ellipse 1" cx="5" cy="5" r="5" transform="translate(564 81)" fill="#e9e9e9"/>
    </g>
    <g transform="translate(-459 39)">
      <circle id="Ellipse_1-96" data-name="Ellipse 1" cx="5" cy="5" r="5" transform="translate(564 81)" fill="#e9e9e9"/>
    </g>
    <g transform="translate(-444 39)">
      <circle id="Ellipse_1-97" data-name="Ellipse 1" cx="5" cy="5" r="5" transform="translate(564 81)" fill="#e9e9e9"/>
    </g>
    <g transform="translate(-429 39)">
      <circle id="Ellipse_1-98" data-name="Ellipse 1" cx="5" cy="5" r="5" transform="translate(564 81)" fill="#e9e9e9"/>
    </g>
    <g transform="translate(-414 39)">
      <circle id="Ellipse_1-99" data-name="Ellipse 1" cx="5" cy="5" r="5" transform="translate(564 81)" fill="#e9e9e9"/>
    </g>
    <g transform="translate(-564 54)">
      <circle id="Ellipse_1-100" data-name="Ellipse 1" cx="5" cy="5" r="5" transform="translate(564 81)" fill="#e9e9e9"/>
    </g>
    <g transform="translate(-549 54)">
      <circle id="Ellipse_1-101" data-name="Ellipse 1" cx="5" cy="5" r="5" transform="translate(564 81)" fill="#e9e9e9"/>
    </g>
    <g transform="translate(-534 54)">
      <circle id="Ellipse_1-102" data-name="Ellipse 1" cx="5" cy="5" r="5" transform="translate(564 81)" fill="#e9e9e9"/>
    </g>
    <g transform="translate(-519 54)">
      <circle id="Ellipse_1-103" data-name="Ellipse 1" cx="5" cy="5" r="5" transform="translate(564 81)" fill="#e9e9e9"/>
    </g>
    <g transform="translate(-504 54)">
      <circle id="Ellipse_1-104" data-name="Ellipse 1" cx="5" cy="5" r="5" transform="translate(564 81)" fill="#e9e9e9"/>
    </g>
    <g transform="translate(-489 54)">
      <circle id="Ellipse_1-105" data-name="Ellipse 1" cx="5" cy="5" r="5" transform="translate(564 81)" fill="#e9e9e9"/>
    </g>
    <g transform="translate(-474 54)">
      <circle id="Ellipse_1-106" data-name="Ellipse 1" cx="5" cy="5" r="5" transform="translate(564 81)" fill="#e9e9e9"/>
    </g>
    <g transform="translate(-459 54)">
      <circle id="Ellipse_1-107" data-name="Ellipse 1" cx="5" cy="5" r="5" transform="translate(564 81)" fill="#e9e9e9"/>
    </g>
    <g transform="translate(-444 54)">
      <circle id="Ellipse_1-108" data-name="Ellipse 1" cx="5" cy="5" r="5" transform="translate(564 81)" fill="#e9e9e9"/>
    </g>
    <g transform="translate(-429 54)">
      <circle id="Ellipse_1-109" data-name="Ellipse 1" cx="5" cy="5" r="5" transform="translate(564 81)" fill="#e9e9e9"/>
    </g>
    <g transform="translate(-414 54)">
      <circle id="Ellipse_1-110" data-name="Ellipse 1" cx="5" cy="5" r="5" transform="translate(564 81)" fill="#e9e9e9"/>
    </g>
    <g transform="translate(-564 69)">
      <circle id="Ellipse_1-111" data-name="Ellipse 1" cx="5" cy="5" r="5" transform="translate(564 81)" fill="#e9e9e9"/>
    </g>
    <g transform="translate(-549 69)">
      <circle id="Ellipse_1-112" data-name="Ellipse 1" cx="5" cy="5" r="5" transform="translate(564 81)" fill="#e9e9e9"/>
    </g>
    <g transform="translate(-534 69)">
      <circle id="Ellipse_1-113" data-name="Ellipse 1" cx="5" cy="5" r="5" transform="translate(564 81)" fill="#e9e9e9"/>
    </g>
    <g transform="translate(-519 69)">
      <circle id="Ellipse_1-114" data-name="Ellipse 1" cx="5" cy="5" r="5" transform="translate(564 81)" fill="#e9e9e9"/>
    </g>
    <g transform="translate(-504 69)">
      <circle id="Ellipse_1-115" data-name="Ellipse 1" cx="5" cy="5" r="5" transform="translate(564 81)" fill="#e9e9e9"/>
    </g>
    <g transform="translate(-489 69)">
      <circle id="Ellipse_1-116" data-name="Ellipse 1" cx="5" cy="5" r="5" transform="translate(564 81)" fill="#e9e9e9"/>
    </g>
    <g transform="translate(-474 69)">
      <circle id="Ellipse_1-117" data-name="Ellipse 1" cx="5" cy="5" r="5" transform="translate(564 81)" fill="#e9e9e9"/>
    </g>
    <g transform="translate(-459 69)">
      <circle id="Ellipse_1-118" data-name="Ellipse 1" cx="5" cy="5" r="5" transform="translate(564 81)" fill="#e9e9e9"/>
    </g>
    <g transform="translate(-444 69)">
      <circle id="Ellipse_1-119" data-name="Ellipse 1" cx="5" cy="5" r="5" transform="translate(564 81)" fill="#e9e9e9"/>
    </g>
    <g transform="translate(-429 69)">
      <circle id="Ellipse_1-120" data-name="Ellipse 1" cx="5" cy="5" r="5" transform="translate(564 81)" fill="#e9e9e9"/>
    </g>
    <g transform="translate(-414 69)">
      <circle id="Ellipse_1-121" data-name="Ellipse 1" cx="5" cy="5" r="5" transform="translate(564 81)" fill="#e9e9e9"/>
    </g>
    <g transform="translate(-564 84)">
      <circle id="Ellipse_1-122" data-name="Ellipse 1" cx="5" cy="5" r="5" transform="translate(564 81)" fill="#e9e9e9"/>
    </g>
    <g transform="translate(-549 84)">
      <circle id="Ellipse_1-123" data-name="Ellipse 1" cx="5" cy="5" r="5" transform="translate(564 81)" fill="#e9e9e9"/>
    </g>
    <g transform="translate(-534 84)">
      <circle id="Ellipse_1-124" data-name="Ellipse 1" cx="5" cy="5" r="5" transform="translate(564 81)" fill="#e9e9e9"/>
    </g>
    <g transform="translate(-519 84)">
      <circle id="Ellipse_1-125" data-name="Ellipse 1" cx="5" cy="5" r="5" transform="translate(564 81)" fill="#e9e9e9"/>
    </g>
    <g transform="translate(-504 84)">
      <circle id="Ellipse_1-126" data-name="Ellipse 1" cx="5" cy="5" r="5" transform="translate(564 81)" fill="#e9e9e9"/>
    </g>
    <g transform="translate(-489 84)">
      <circle id="Ellipse_1-127" data-name="Ellipse 1" cx="5" cy="5" r="5" transform="translate(564 81)" fill="#e9e9e9"/>
    </g>
    <g transform="translate(-474 84)">
      <circle id="Ellipse_1-128" data-name="Ellipse 1" cx="5" cy="5" r="5" transform="translate(564 81)" fill="#e9e9e9"/>
    </g>
    <g transform="translate(-459 84)">
      <circle id="Ellipse_1-129" data-name="Ellipse 1" cx="5" cy="5" r="5" transform="translate(564 81)" fill="#e9e9e9"/>
    </g>
    <g transform="translate(-444 84)">
      <circle id="Ellipse_1-130" data-name="Ellipse 1" cx="5" cy="5" r="5" transform="translate(564 81)" fill="#e9e9e9"/>
    </g>
    <g transform="translate(-429 84)">
      <circle id="Ellipse_1-131" data-name="Ellipse 1" cx="5" cy="5" r="5" transform="translate(564 81)" fill="#e9e9e9"/>
    </g>
    <g transform="translate(-414 84)">
      <circle id="Ellipse_1-132" data-name="Ellipse 1" cx="5" cy="5" r="5" transform="translate(564 81)" fill="#e9e9e9"/>
    </g>
    <g transform="translate(-564 99)">
      <circle id="Ellipse_1-133" data-name="Ellipse 1" cx="5" cy="5" r="5" transform="translate(564 81)" fill="#e9e9e9"/>
    </g>
    <g transform="translate(-549 99)">
      <circle id="Ellipse_1-134" data-name="Ellipse 1" cx="5" cy="5" r="5" transform="translate(564 81)" fill="#e9e9e9"/>
    </g>
    <g transform="translate(-534 99)">
      <circle id="Ellipse_1-135" data-name="Ellipse 1" cx="5" cy="5" r="5" transform="translate(564 81)" fill="#e9e9e9"/>
    </g>
    <g transform="translate(-519 99)">
      <circle id="Ellipse_1-136" data-name="Ellipse 1" cx="5" cy="5" r="5" transform="translate(564 81)" fill="#e9e9e9"/>
    </g>
    <g transform="translate(-504 99)">
      <circle id="Ellipse_1-137" data-name="Ellipse 1" cx="5" cy="5" r="5" transform="translate(564 81)" fill="#e9e9e9"/>
    </g>
    <g transform="translate(-489 99)">
      <circle id="Ellipse_1-138" data-name="Ellipse 1" cx="5" cy="5" r="5" transform="translate(564 81)" fill="#e9e9e9"/>
    </g>
    <g transform="translate(-474 99)">
      <circle id="Ellipse_1-139" data-name="Ellipse 1" cx="5" cy="5" r="5" transform="translate(564 81)" fill="#e9e9e9"/>
    </g>
    <g transform="translate(-459 99)">
      <circle id="Ellipse_1-140" data-name="Ellipse 1" cx="5" cy="5" r="5" transform="translate(564 81)" fill="#e9e9e9"/>
    </g>
    <g transform="translate(-444 99)">
      <circle id="Ellipse_1-141" data-name="Ellipse 1" cx="5" cy="5" r="5" transform="translate(564 81)" fill="#e9e9e9"/>
    </g>
    <g transform="translate(-429 99)">
      <circle id="Ellipse_1-142" data-name="Ellipse 1" cx="5" cy="5" r="5" transform="translate(564 81)" fill="#e9e9e9"/>
    </g>
    <g transform="translate(-414 99)">
      <circle id="Ellipse_1-143" data-name="Ellipse 1" cx="5" cy="5" r="5" transform="translate(564 81)" fill="#e9e9e9"/>
    </g>
  </g>
</svg>
